<?xml version="1.0" standalone="no"?>
<!DOCTYPE svg PUBLIC "-//W3C//DTD SVG 20010904//EN"
 "http://www.w3.org/TR/2001/REC-SVG-20010904/DTD/svg10.dtd">
<svg version="1.0" xmlns="http://www.w3.org/2000/svg"
 width="400.000000pt" height="300.000000pt" viewBox="0 0 400.000000 300.000000"
 preserveAspectRatio="xMidYMid meet">

<g transform="translate(0.000000,300.000000) scale(0.100000,-0.100000)"
fill="#000000" stroke="none">
<path d="M72 1634 l3 -937 46 -39 c46 -39 50 -40 793 -233 791 -206 912 -239
1020 -280 l68 -26 80 31 c43 17 172 55 286 84 114 29 488 127 832 216 l625
163 53 44 52 45 0 934 c0 741 -3 934 -12 934 -7 0 -42 -9 -78 -21 -344 -107
-1110 -253 -1710 -324 l-135 -16 -238 30 c-567 72 -1283 211 -1597 310 -36 12
-71 21 -78 21 -10 0 -12 -190 -10 -936z m3678 528 c0 -103 -24 -225 -135 -670
-63 -255 -115 -465 -115 -467 0 -3 33 -5 74 -5 42 0 78 -5 81 -11 9 -13 -13
-257 -25 -286 -9 -22 -15 -23 -129 -23 -66 0 -132 5 -147 10 l-27 11 6 115 c5
94 18 165 67 368 34 138 84 343 111 455 27 111 49 209 49 216 0 9 -11 10 -42
4 -63 -12 -95 -11 -101 4 -7 18 13 260 21 269 11 11 222 56 270 57 l42 1 0
-48z m-3357 7 c24 -6 41 -18 46 -32 13 -34 109 -853 127 -1077 12 -162 -33
-270 -115 -270 -80 0 -136 67 -171 206 -20 77 -50 295 -50 363 l0 33 55 -4
c31 -3 60 -9 66 -15 5 -5 16 -63 24 -129 18 -145 24 -174 36 -174 23 0 15 92
-61 720 -22 179 -40 340 -40 358 0 36 15 40 83 21z m2912 -39 c17 -6 34 -27
48 -57 20 -44 22 -64 22 -220 0 -123 -4 -175 -12 -184 -7 -7 -34 -13 -60 -13
l-48 -1 -5 99 c-5 108 -20 132 -40 70 -19 -58 -6 -152 35 -252 87 -208 88
-215 93 -372 3 -118 0 -163 -17 -244 -22 -111 -68 -214 -108 -246 -40 -31 -98
-27 -132 9 -44 47 -53 92 -58 274 -6 205 -2 217 79 217 l51 0 -6 -87 c-7 -99
2 -158 23 -158 23 0 42 82 37 162 -4 52 -15 95 -42 160 -77 183 -89 233 -89
388 0 153 16 238 60 335 30 65 58 98 99 116 37 16 38 16 70 4z m-2627 -14 c63
-33 113 -117 148 -248 22 -85 55 -288 48 -299 -7 -12 -81 -11 -103 1 -25 13
-29 26 -42 133 -12 102 -32 161 -51 155 -19 -6 -21 -84 -8 -238 18 -208 58
-509 75 -567 17 -58 40 -70 51 -27 7 27 -1 195 -13 267 l-6 40 53 -5 c66 -7
76 -19 86 -106 14 -111 11 -352 -4 -395 -48 -134 -151 -128 -221 12 -54 107
-89 254 -128 537 -35 259 -40 599 -10 677 28 72 69 92 125 63z m2317 -741 c-1
-419 -4 -668 -10 -674 -6 -6 -36 -13 -68 -17 l-57 -7 0 117 0 118 -32 -7 c-18
-4 -34 -8 -36 -10 -1 -1 -7 -45 -13 -96 -13 -114 -24 -134 -80 -143 -75 -12
-74 -30 -23 449 42 397 79 710 99 825 17 97 31 116 98 124 23 3 53 7 67 9 57
7 55 35 55 -688z m-1920 653 c25 -8 44 -22 51 -38 29 -62 199 -1348 181 -1366
-10 -10 -107 27 -116 44 -5 10 -12 46 -15 82 -14 134 -15 138 -48 149 -17 6
-33 11 -35 11 -2 0 -1 -40 3 -88 8 -110 -1 -133 -49 -123 -63 15 -75 27 -81
83 -17 151 -52 1202 -42 1242 7 28 8 29 59 23 29 -3 70 -11 92 -19z m1601 -43
c12 -29 -61 -1296 -76 -1332 -7 -16 -21 -23 -55 -29 -29 -4 -51 -2 -57 4 -6 6
-14 53 -18 104 -4 51 -14 167 -21 258 -7 95 -15 154 -19 140 -4 -14 -10 -129
-14 -256 -4 -127 -10 -244 -15 -260 -6 -22 -17 -32 -50 -44 -37 -13 -43 -13
-51 0 -13 19 -12 263 0 625 15 446 30 716 40 735 15 27 131 54 143 33 3 -5 13
-111 23 -238 21 -270 29 -263 41 32 5 129 12 206 20 214 10 10 59 25 91 28 7
1 15 -6 18 -14z m-1259 -26 c107 -51 162 -185 185 -451 13 -157 3 -289 -32
-399 l-20 -64 46 -278 c26 -152 44 -280 41 -283 -9 -10 -115 35 -121 51 -2 7
-19 105 -37 217 -19 111 -35 195 -37 186 -2 -10 1 -95 7 -190 6 -104 6 -177 1
-182 -15 -15 -88 12 -104 37 -9 15 -27 213 -60 647 -51 677 -52 710 -33 729
17 17 109 6 164 -20z m369 -65 c81 -46 144 -153 165 -279 29 -179 26 -743 -6
-940 -25 -157 -46 -207 -105 -248 -43 -30 -110 -17 -153 31 -21 23 -24 50 -37
457 -6 171 -12 355 -15 410 -2 55 -7 209 -11 342 l-7 243 24 9 c34 14 97 3
145 -25z m492 24 c13 -13 5 -236 -10 -254 -5 -7 -35 -22 -68 -34 l-60 -22 0
-130 0 -130 28 7 c15 5 38 9 52 9 l25 1 -2 -110 c-3 -149 -3 -150 -63 -170
l-50 -17 -1 -91 c0 -51 -3 -118 -5 -149 -2 -32 -3 -58 -1 -58 2 0 30 9 62 20
32 11 62 20 67 20 11 0 10 -212 -1 -242 -7 -18 -34 -34 -115 -66 -59 -23 -114
-42 -122 -42 -14 0 -15 78 -12 692 2 519 6 698 15 714 22 39 232 81 261 52z"/>
<path d="M2857 1595 c-19 -149 -46 -439 -42 -446 3 -4 14 -5 24 -2 17 4 20 19
26 146 3 78 5 192 3 252 -3 103 -3 106 -11 50z"/>
<path d="M1059 1605 c-7 -16 15 -439 24 -452 5 -7 17 -13 28 -13 15 0 18 5 15
23 -3 12 -17 114 -31 227 -29 225 -29 228 -36 215z"/>
<path d="M1395 1643 c6 -64 25 -354 25 -384 0 -31 20 -22 37 19 13 30 14 63
10 177 -5 139 -16 194 -45 228 -26 30 -33 19 -27 -40z"/>
<path d="M1764 1323 c9 -396 16 -585 22 -605 10 -32 33 -19 45 25 8 29 10 139
6 372 -5 326 -14 417 -43 463 -34 53 -37 29 -30 -255z"/>
</g>
</svg>
